<svg xmlns="http://www.w3.org/2000/svg" viewBox="0 0 1200 800" role="img" aria-labelledby="title desc">
  <title id="title">Pet home visit preparation illustration</title>
  <desc id="desc">A calm living room scene with a mobile veterinary bag, a dog, a cat, and preparation items for a home visit.</desc>
  <defs>
    <linearGradient id="bg" x1="0" x2="1" y1="0" y2="1">
      <stop offset="0%" stop-color="#f6f1ea"/>
      <stop offset="100%" stop-color="#e6efe8"/>
    </linearGradient>
  </defs>
  <rect width="1200" height="800" fill="url(#bg)"/>
  <rect x="0" y="585" width="1200" height="215" fill="#d9c2a3"/>
  <rect x="85" y="120" width="430" height="300" rx="28" fill="#fbf7f2" stroke="#d8d0c7" stroke-width="6"/>
  <rect x="120" y="155" width="360" height="210" rx="16" fill="#dfe8ef"/>
  <circle cx="295" cy="260" r="78" fill="#f8f4ef"/>
  <circle cx="295" cy="260" r="46" fill="#d6b08a"/>
  <path d="M220 250c44-74 116-96 172-52" fill="none" stroke="#c93b33" stroke-width="12" stroke-linecap="round"/>
  <path d="M395 285c-35 54-91 80-149 70" fill="none" stroke="#c93b33" stroke-width="12" stroke-linecap="round"/>
  <rect x="720" y="150" width="270" height="360" rx="24" fill="#fffaf3" stroke="#dacdbf" stroke-width="6"/>
  <rect x="760" y="205" width="190" height="32" rx="12" fill="#dce8dd"/>
  <rect x="760" y="270" width="130" height="20" rx="10" fill="#c93b33" opacity=".9"/>
  <rect x="760" y="318" width="165" height="20" rx="10" fill="#1d2f4d" opacity=".85"/>
  <rect x="760" y="366" width="145" height="20" rx="10" fill="#5a7f67" opacity=".85"/>
  <path d="M790 278l12 12 24-28" fill="none" stroke="#fff" stroke-width="8" stroke-linecap="round" stroke-linejoin="round"/>
  <path d="M790 326l12 12 24-28" fill="none" stroke="#fff" stroke-width="8" stroke-linecap="round" stroke-linejoin="round"/>
  <path d="M790 374l12 12 24-28" fill="none" stroke="#fff" stroke-width="8" stroke-linecap="round" stroke-linejoin="round"/>
  <rect x="470" y="420" width="250" height="145" rx="30" fill="#c93b33"/>
  <rect x="560" y="388" width="72" height="42" rx="18" fill="#c93b33"/>
  <rect x="555" y="470" width="80" height="16" rx="8" fill="#fff2f0"/>
  <rect x="587" y="438" width="16" height="80" rx="8" fill="#fff2f0"/>
  <path d="M390 590c0-64 40-106 98-106 57 0 114 51 114 116v62H390z" fill="#b88b5d"/>
  <circle cx="443" cy="496" r="26" fill="#b88b5d"/>
  <circle cx="531" cy="496" r="26" fill="#b88b5d"/>
  <ellipse cx="475" cy="638" rx="95" ry="22" fill="#000" opacity=".08"/>
  <path d="M344 610c0-58 44-94 101-94 55 0 92 33 92 88v36H344z" fill="#4d5b68"/>
  <circle cx="378" cy="542" r="24" fill="#4d5b68"/>
  <circle cx="499" cy="542" r="24" fill="#4d5b68"/>
  <circle cx="425" cy="590" r="7" fill="#f5d7c0"/>
  <circle cx="462" cy="590" r="7" fill="#f5d7c0"/>
  <path d="M432 606c8 8 18 12 28 12s20-4 28-12" fill="none" stroke="#f5d7c0" stroke-width="6" stroke-linecap="round"/>
  <path d="M820 545c-8-58 40-105 102-105 61 0 105 40 111 112l4 52H823z" fill="#e8c49a"/>
  <circle cx="865" cy="470" r="28" fill="#e8c49a"/>
  <circle cx="961" cy="470" r="28" fill="#e8c49a"/>
  <ellipse cx="930" cy="641" rx="114" ry="24" fill="#000" opacity=".08"/>
  <path d="M810 578c20-20 53-28 81-25 40 4 66 24 94 24 45 0 58-19 79-24" fill="none" stroke="#1d2f4d" stroke-width="10" stroke-linecap="round"/>
  <circle cx="902" cy="544" r="7" fill="#3e2a1e"/>
  <circle cx="948" cy="544" r="7" fill="#3e2a1e"/>
  <path d="M912 563c10 8 18 11 27 11 9 0 18-3 29-11" fill="none" stroke="#3e2a1e" stroke-width="5" stroke-linecap="round"/>
</svg>
