<svg xmlns="http://www.w3.org/2000/svg" viewBox="0 0 1200 800" role="img" aria-labelledby="title desc">
  <title id="title">Pet emergency illustration</title>
  <desc id="desc">An emergency veterinary scene with a first-aid bag, urgent heartbeat line, and dog and cat silhouettes.</desc>
  <defs>
    <linearGradient id="bg" x1="0" x2="1" y1="0" y2="1">
      <stop offset="0%" stop-color="#1d2f4d"/>
      <stop offset="100%" stop-color="#364d68"/>
    </linearGradient>
    <linearGradient id="card" x1="0" x2="1">
      <stop offset="0%" stop-color="#fcf6f1"/>
      <stop offset="100%" stop-color="#f0ece7"/>
    </linearGradient>
  </defs>
  <rect width="1200" height="800" fill="url(#bg)"/>
  <path d="M0 565h184l44-84 54 166 70-263 68 112 53-28 63 97h664" fill="none" stroke="#ff6b5f" stroke-width="12" stroke-linecap="round" stroke-linejoin="round"/>
  <rect x="336" y="162" width="528" height="408" rx="40" fill="url(#card)" stroke="#d8c8bf" stroke-width="8"/>
  <rect x="500" y="118" width="200" height="82" rx="28" fill="#c93b33"/>
  <rect x="570" y="268" width="60" height="198" rx="22" fill="#c93b33"/>
  <rect x="500" y="337" width="200" height="60" rx="22" fill="#c93b33"/>
  <circle cx="454" cy="330" r="86" fill="#c93b33" opacity=".13"/>
  <circle cx="744" cy="452" r="72" fill="#1d2f4d" opacity=".14"/>
  <g transform="translate(408 294)">
    <path d="M0 168c0-78 58-129 130-129 69 0 118 40 125 115l4 58H0z" fill="#d2aa80"/>
    <circle cx="43" cy="81" r="26" fill="#d2aa80"/>
    <circle cx="149" cy="81" r="26" fill="#d2aa80"/>
    <circle cx="92" cy="156" r="7" fill="#30211c"/>
    <circle cx="132" cy="156" r="7" fill="#30211c"/>
    <path d="M101 180c10 10 18 13 28 13s19-3 30-13" fill="none" stroke="#30211c" stroke-width="6" stroke-linecap="round"/>
    <path d="M-36 190c28-28 57-37 93-37" fill="none" stroke="#866348" stroke-width="10" stroke-linecap="round"/>
  </g>
  <g transform="translate(655 366)">
    <path d="M0 131c0-69 47-112 112-112 64 0 107 36 114 112v48H0z" fill="#5d6871"/>
    <circle cx="29" cy="58" r="22" fill="#5d6871"/>
    <circle cx="135" cy="58" r="22" fill="#5d6871"/>
    <circle cx="72" cy="110" r="6" fill="#f3ddd0"/>
    <circle cx="111" cy="110" r="6" fill="#f3ddd0"/>
    <path d="M79 129c8 6 15 8 24 8 8 0 16-2 25-8" fill="none" stroke="#f3ddd0" stroke-width="5" stroke-linecap="round"/>
  </g>
  <circle cx="972" cy="168" r="74" fill="#ff6b5f" opacity=".16"/>
  <circle cx="1032" cy="254" r="28" fill="#ff6b5f" opacity=".2"/>
  <circle cx="190" cy="178" r="54" fill="#ff6b5f" opacity=".14"/>
  <circle cx="134" cy="262" r="24" fill="#ff6b5f" opacity=".18"/>
</svg>
